Water.For.Elephants.720p.BRRip.x264.Feel-Free

Genre: Drama | Romance
 Language: English
 IMDb: http://www.imdb.com/title/tt1067583/
 Source: BluRay.x264-MCHD Thanks!
 Subtitles: Romana
 
Format : MPEG-4
 Format profile : Base Media
 Codec ID : isom
 File size : 2.80 GiB
 Duration : 2h 0mn
 Overall bit rate : 3 331 Kbps
 
Video
 ID : 1
 Format : AVC
 Format/Info : Advanced Video Codec
 Format profile : High@L4.1
 Format settings, CABAC : Yes
 Format settings, ReFrames : 3 frames
 Codec ID : avc1
 Codec ID/Info : Advanced Video Coding
 Duration : 2h 0mn
 Bit rate mode : Variable
 Bit rate : 3 000 Kbps
 Maximum bit rate : 12.5 Mbps
 Width : 1 280 pixels
 Height : 544 pixels
 Display aspect ratio : 2.35:1
 Frame rate mode : Constant
 Frame rate : 23.976 fps
 Color space : YUV
 Chroma subsampling : 4:2:0
 Bit depth : 8 bits
 Scan type : Progressive
 Bits/(Pixel*Frame) : 0.180
 Stream size : 2.43 GiB (87%)
 Writing library : x264
 
Audio
 ID : 2
 Format : AAC
 Format/Info : Advanced Audio Codec
 Format version : Version 4
 Format profile : LC
 Format settings, SBR : No
 Codec ID : 40
 Duration : 2h 0mn
 Bit rate mode : Variable
 Bit rate : 440 Kbps
 Maximum bit rate : 521 Kbps
 Channel(s) : 6 channels
 Channel positions : Front: L C R, Side: L R, LFE
 Sampling rate : 48.0 KHz
 Stream size : 379 MiB (13%)
 
Plot:
A veterinary student abandons his studies after his parents are killed and joins a traveling circus as their vet. 